<svg width="27" height="23" viewBox="0 0 27 23" fill="none" xmlns="http://www.w3.org/2000/svg">
<g id="&#240;&#159;&#166;&#134; icon &#34;camera&#34;">
<g id="Group 8">
<path id="Vector" d="M24.2208 3.46011H20.0192L19.0183 0.65495C18.9491 0.463001 18.8224 0.297081 18.6554 0.179857C18.4884 0.0626324 18.2893 -0.000179993 18.0853 3.87418e-07H8.60703C8.18997 3.87418e-07 7.81615 0.262598 7.67713 0.65495L6.67308 3.46011H2.47151C1.106 3.46011 0 4.56612 0 5.93162V20.0192C0 21.3847 1.106 22.4907 2.47151 22.4907H24.2208C25.5863 22.4907 26.6923 21.3847 26.6923 20.0192V5.93162C26.6923 4.56612 25.5863 3.46011 24.2208 3.46011ZM24.4679 20.0192C24.4679 20.1552 24.3567 20.2664 24.2208 20.2664H2.47151C2.33558 20.2664 2.22436 20.1552 2.22436 20.0192V5.93162C2.22436 5.79569 2.33558 5.68447 2.47151 5.68447H8.2394L8.76768 4.20775L9.47515 2.22436H17.2141L17.9215 4.20775L18.4498 5.68447H24.2208C24.3567 5.68447 24.4679 5.79569 24.4679 5.93162V20.0192ZM13.3462 7.66168C10.6151 7.66168 8.40313 9.87368 8.40313 12.6047C8.40313 15.3357 10.6151 17.5477 13.3462 17.5477C16.0772 17.5477 18.2892 15.3357 18.2892 12.6047C18.2892 9.87368 16.0772 7.66168 13.3462 7.66168ZM13.3462 15.5705C11.7088 15.5705 10.3803 14.2421 10.3803 12.6047C10.3803 10.9673 11.7088 9.63889 13.3462 9.63889C14.9835 9.63889 16.312 10.9673 16.312 12.6047C16.312 14.2421 14.9835 15.5705 13.3462 15.5705Z" fill="black"/>
</g>
</g>
</svg>
