<svg width="23" height="23" viewBox="0 0 23 23" fill="none" xmlns="http://www.w3.org/2000/svg">
<path id="Vector" d="M22.524 11.3116L12.0738 0.251884C11.9986 0.172037 11.9092 0.10869 11.8108 0.0654689C11.7125 0.0222474 11.607 0 11.5005 0C11.394 0 11.2885 0.0222474 11.1901 0.0654689C11.0917 0.10869 11.0023 0.172037 10.9271 0.251884L0.476967 11.3116C0.17252 11.634 0 12.072 0 12.5288C0 13.4773 0.728135 14.2485 1.62372 14.2485H2.7248V22.1402C2.7248 22.6158 3.0876 23 3.53666 23H9.87676V16.9811H12.7183V23H19.4643C19.9134 23 20.2762 22.6158 20.2762 22.1402V14.2485H21.3772C21.8085 14.2485 22.2221 14.0684 22.5265 13.7433C23.1582 13.0715 23.1582 11.9833 22.524 11.3116Z" fill="black"/>
</svg>
