<svg xmlns="http://www.w3.org/2000/svg" width="20" height="20" viewBox="0 0 20 20" fill="none">
  <path d="M15.74 2.60804C12.212 1.42204 8.67396 1.64704 5.01996 3.88204C2.16696 5.62504 0.301959 9.95804 0.916959 13.064C1.64496 16.735 5.26796 19.059 10.16 17.715C15.435 16.266 16.709 13.169 16.539 12.381C16.369 11.593 13.874 10.729 14.821 8.88304C16.009 6.57004 17.95 7.73404 18.803 7.26104C19.658 6.78904 19.342 3.81904 15.74 2.60804ZM12.094 13.314C11.7091 13.4177 11.2989 13.3645 10.9533 13.1659C10.6078 12.9673 10.3552 12.6397 10.251 12.255C10.1979 12.065 10.183 11.8663 10.2069 11.6704C10.2308 11.4745 10.2931 11.2852 10.3902 11.1135C10.4874 10.9417 10.6175 10.7908 10.7731 10.6694C10.9287 10.548 11.1067 10.4585 11.297 10.406C11.4875 10.3546 11.6863 10.3411 11.8821 10.3665C12.0778 10.3918 12.2667 10.4555 12.4378 10.5538C12.6089 10.6522 12.759 10.7833 12.8795 10.9396C13 11.096 13.0885 11.2745 13.14 11.465C13.1928 11.6551 13.2077 11.8538 13.1838 12.0496C13.1598 12.2455 13.0975 12.4347 13.0003 12.6064C12.9032 12.7781 12.7731 12.929 12.6176 13.0505C12.4621 13.1719 12.2841 13.2615 12.094 13.314Z" fill="#F8F8F8"/>
</svg>