<svg width="28" height="22" viewBox="0 0 28 22" fill="none" xmlns="http://www.w3.org/2000/svg">
<g id="&#240;&#159;&#166;&#134; icon &#34;picture&#34;">
<g id="Group 7">
<path id="Vector" d="M27 0H1C0.446875 0 0 0.446875 0 1V21C0 21.5531 0.446875 22 1 22H27C27.5531 22 28 21.5531 28 21V1C28 0.446875 27.5531 0 27 0ZM25.75 19.75H2.25V18.5031L6.57812 13.3687L11.2688 18.9312L18.5656 10.2812L25.75 18.8V19.75ZM25.75 15.6938L18.7563 7.4C18.6562 7.28125 18.475 7.28125 18.375 7.4L11.2688 15.825L6.76875 10.4906C6.66875 10.3719 6.4875 10.3719 6.3875 10.4906L2.25 15.3969V2.25H25.75V15.6938ZM7.5 9.25C8.22935 9.25 8.92882 8.96027 9.44454 8.44454C9.96027 7.92882 10.25 7.22935 10.25 6.5C10.25 5.77065 9.96027 5.07118 9.44454 4.55546C8.92882 4.03973 8.22935 3.75 7.5 3.75C6.77065 3.75 6.07118 4.03973 5.55546 4.55546C5.03973 5.07118 4.75 5.77065 4.75 6.5C4.75 7.22935 5.03973 7.92882 5.55546 8.44454C6.07118 8.96027 6.77065 9.25 7.5 9.25ZM7.5 5.625C7.98438 5.625 8.375 6.01562 8.375 6.5C8.375 6.98438 7.98438 7.375 7.5 7.375C7.01562 7.375 6.625 6.98438 6.625 6.5C6.625 6.01562 7.01562 5.625 7.5 5.625Z" fill="black"/>
</g>
</g>
</svg>
