<svg width="25" height="26" viewBox="0 0 25 26" fill="none" xmlns="http://www.w3.org/2000/svg">
<g id="&#240;&#159;&#166;&#134; icon &#34;team&#34;">
<path id="Vector" d="M22.2562 18.4288C21.474 17.6436 20.56 17.0027 19.5562 16.5355C20.9718 15.3851 21.8749 13.6298 21.8749 11.6613C21.8749 8.1882 18.9875 5.33889 15.525 5.39218C12.1156 5.44546 9.36877 8.23209 9.36877 11.6613C9.36877 13.6298 10.275 15.3851 11.6875 16.5355C10.6835 17.0024 9.76945 17.6433 8.98752 18.4288C7.28128 20.1434 6.31254 22.4066 6.25004 24.8202C6.24921 24.8536 6.25506 24.8869 6.26725 24.9181C6.27943 24.9492 6.29772 24.9776 6.32101 25.0016C6.34431 25.0255 6.37216 25.0445 6.4029 25.0575C6.43365 25.0705 6.46667 25.0772 6.50004 25.0772H8.25003C8.3844 25.0772 8.4969 24.9706 8.50002 24.8358C8.5594 23.0178 9.29377 21.3157 10.5844 20.0243C11.2448 19.3583 12.0304 18.8303 12.8956 18.4709C13.7608 18.1115 14.6885 17.9278 15.625 17.9304C17.5281 17.9304 19.3187 18.6733 20.6656 20.0243C21.9531 21.3157 22.6874 23.0178 22.7499 24.8358C22.7531 24.9706 22.8656 25.0772 22.9999 25.0772H24.7499C24.7833 25.0772 24.8163 25.0705 24.8471 25.0575C24.8778 25.0445 24.9056 25.0255 24.9289 25.0016C24.9522 24.9776 24.9705 24.9492 24.9827 24.9181C24.9949 24.8869 25.0008 24.8536 24.9999 24.8202C24.9374 22.4066 23.9687 20.1434 22.2562 18.4288ZM15.625 15.6735C14.5562 15.6735 13.55 15.2566 12.7969 14.4981C12.4189 14.1219 12.1204 13.6733 11.919 13.1789C11.7177 12.6845 11.6177 12.1545 11.625 11.6205C11.6344 10.5924 12.0438 9.59875 12.7594 8.86213C13.5094 8.09103 14.5125 7.6616 15.5844 7.64906C16.6437 7.63966 17.6718 8.05342 18.4281 8.79631C19.2031 9.55801 19.6281 10.5767 19.6281 11.6613C19.6281 12.7333 19.2125 13.7395 18.4562 14.4981C18.0852 14.872 17.6439 15.1684 17.158 15.3702C16.672 15.572 16.1509 15.6751 15.625 15.6735ZM7.7969 12.4888C7.76878 12.2161 7.75315 11.9403 7.75315 11.6613C7.75315 11.1629 7.80003 10.677 7.88753 10.2037C7.9094 10.0909 7.85003 9.9749 7.7469 9.92788C7.32191 9.73668 6.93128 9.47337 6.59379 9.14111C6.1961 8.75433 5.88316 8.28864 5.67493 7.77376C5.46671 7.25888 5.36776 6.70612 5.38442 6.15074C5.41254 5.14455 5.81567 4.18851 6.51879 3.46756C7.29066 2.67451 8.32815 2.24194 9.43127 2.25448C10.4281 2.26389 11.3906 2.64944 12.1188 3.33277C12.3656 3.56473 12.5781 3.82176 12.7562 4.0976C12.8187 4.19478 12.9406 4.23552 13.0469 4.19791C13.5969 4.0067 14.1781 3.87192 14.775 3.80922C14.95 3.79042 15.05 3.60234 14.9719 3.44562C13.9562 1.43009 11.8813 0.0383502 9.48127 0.000735485C6.01567 -0.052552 3.12818 2.79676 3.12818 6.26672C3.12818 8.23522 4.0313 9.99057 5.44692 11.141C4.45318 11.6017 3.53756 12.2381 2.74381 13.0342C1.03132 14.7488 0.0625778 17.012 7.81433e-05 19.4287C-0.00075593 19.4622 0.00509412 19.4955 0.0172838 19.5266C0.0294734 19.5578 0.0477559 19.5862 0.071054 19.6101C0.094352 19.6341 0.122195 19.6531 0.15294 19.6661C0.183686 19.6791 0.216714 19.6858 0.250077 19.6858H2.00319C2.13757 19.6858 2.25006 19.5792 2.25319 19.4444C2.31256 17.6264 3.04693 15.9243 4.33755 14.6329C5.2563 13.7113 6.38129 13.0718 7.60941 12.7615C7.73128 12.7302 7.81253 12.6142 7.7969 12.4888Z" fill="black"/>
</g>
</svg>
